<?xml version="1.0" standalone="no"?>
<!DOCTYPE svg PUBLIC "-//W3C//DTD SVG 20010904//EN"
 "http://www.w3.org/TR/2001/REC-SVG-20010904/DTD/svg10.dtd">
<svg version="1.0" xmlns="http://www.w3.org/2000/svg"
 width="500.000000pt" height="500.000000pt" viewBox="0 0 500.000000 500.000000"
 preserveAspectRatio="xMidYMid meet">
<metadata>
Created by potrace 1.14, written by Peter Selinger 2001-2017
</metadata>
<g transform="translate(0.000000,500.000000) scale(0.100000,-0.100000)"
fill="#000000" stroke="none">
<path d="M2308 4992 c-16 -2 -28 -7 -28 -12 0 -4 -9 -6 -20 -3 -12 3 -20 0
-20 -8 0 -7 -3 -10 -6 -7 -8 9 -94 -22 -116 -41 -10 -9 -22 -16 -26 -16 -46
-2 -251 -202 -235 -229 3 -6 3 -8 -2 -4 -8 8 -31 -17 -35 -37 -1 -5 -8 -17
-15 -25 -12 -14 -62 -148 -71 -195 -9 -41 -15 -101 -13 -120 2 -26 1 -109 -4
-210 -2 -44 -1 -84 2 -90 9 -15 10 -125 2 -125 -7 0 -6 -78 3 -212 3 -37 1
-70 -3 -72 -6 -4 -6 -73 3 -219 2 -32 0 -60 -4 -62 -8 -5 -7 -36 3 -52 4 -6 3
-14 -2 -17 -5 -3 -7 -20 -6 -37 3 -36 -23 -51 -66 -39 -14 4 -32 4 -41 -1 -16
-9 -101 28 -93 40 3 6 -47 30 -77 37 -5 1 -10 3 -13 4 -13 7 -33 4 -65 -8 -19
-7 -42 -15 -50 -18 -36 -14 -63 -65 -66 -126 -2 -33 -6 -64 -9 -69 -4 -5 -2
-9 2 -9 9 0 9 -98 0 -107 -3 -2 -1 -17 3 -33 5 -16 5 -45 0 -64 -4 -20 -5 -36
-1 -36 7 0 5 -99 -2 -107 -3 -2 -1 -17 3 -33 5 -16 5 -45 0 -64 -4 -20 -5 -36
-1 -36 3 0 6 -14 7 -30 1 -17 -2 -30 -6 -30 -4 0 -4 -20 0 -45 4 -24 3 -50 -1
-57 -4 -6 -5 -16 -2 -22 4 -5 5 -39 4 -75 -1 -36 -1 -73 -1 -81 0 -8 0 -44 0
-80 0 -36 0 -72 0 -80 0 -8 0 -44 0 -80 0 -141 1 -161 16 -245 8 -44 16 -89
18 -100 7 -33 56 -157 67 -172 6 -7 8 -13 4 -13 -5 0 -1 -8 8 -18 10 -10 14
-22 10 -25 -3 -4 -1 -7 6 -7 7 0 9 -4 6 -10 -3 -5 -2 -10 3 -10 5 0 17 -15 25
-33 15 -30 34 -57 70 -97 7 -8 23 -29 35 -47 13 -17 31 -35 42 -38 11 -4 20
-13 20 -20 0 -8 12 -22 27 -32 16 -10 37 -28 48 -40 11 -13 26 -23 33 -23 7 0
12 -4 12 -10 0 -5 11 -12 25 -16 14 -3 25 -10 25 -15 0 -5 7 -9 15 -9 8 0 15
-3 15 -7 0 -9 101 -63 124 -67 9 -1 22 -8 28 -14 7 -7 18 -12 25 -12 7 0 21
-4 31 -9 9 -5 35 -14 57 -20 61 -18 86 -33 81 -48 -3 -7 -1 -15 4 -18 6 -3 5
-16 0 -31 -6 -15 -6 -32 -1 -42 4 -9 7 -26 4 -37 -7 -39 -9 -117 -2 -121 4 -2
4 -18 -1 -35 -6 -20 -6 -39 0 -50 7 -12 7 -20 0 -24 -8 -5 -8 -11 0 -20 8 -10
6 -17 -8 -27 -15 -10 -73 -13 -263 -11 -224 2 -333 -6 -326 -26 1 -3 -3 -8 -8
-10 -18 -8 -47 -50 -41 -60 4 -5 1 -11 -4 -13 -9 -3 -17 -71 -10 -88 1 -3 3
-13 5 -23 6 -30 34 -67 66 -86 29 -18 75 -19 970 -19 516 0 939 3 939 8 0 4
10 10 23 14 19 4 58 54 63 79 1 4 2 10 4 15 6 21 1 90 -9 112 -16 39 -34 56
-76 78 -37 19 -59 20 -296 20 -141 -1 -261 2 -267 6 -15 9 -17 422 -2 431 5 3
19 8 30 11 11 2 29 6 39 8 10 3 33 12 50 20 17 9 31 14 31 11 0 -4 14 3 30 15
17 12 30 19 30 16 0 -9 153 74 162 87 4 7 8 8 8 4 0 -5 7 -1 16 7 8 9 20 14
25 10 5 -3 8 -2 7 3 -2 4 1 9 5 10 18 5 183 166 180 175 -2 5 4 8 13 8 8 0 12
4 9 10 -3 5 -3 10 2 10 4 0 21 20 36 45 16 25 34 45 40 45 5 0 7 3 4 7 -4 3
-3 11 2 17 25 32 60 109 55 118 -4 7 -2 8 4 4 11 -6 17 12 13 37 0 4 4 7 9 7
5 0 9 3 8 8 0 4 2 15 5 25 18 45 20 53 22 62 1 6 3 12 4 15 4 8 11 43 13 67 1
13 5 23 8 23 3 0 6 24 8 53 4 87 10 136 17 147 3 5 2 10 -2 10 -10 0 -10 41 0
56 3 5 2 16 -2 23 -5 7 -5 28 -1 47 4 19 5 34 1 34 -8 0 -7 42 2 56 3 5 2 16
-2 23 -5 7 -5 28 -1 47 4 19 5 34 1 34 -8 0 -7 42 2 56 3 5 2 16 -2 23 -5 7
-5 28 -1 47 4 19 5 34 1 34 -3 0 -6 23 -6 50 0 28 2 50 5 50 5 0 4 58 0 70 -1
3 -2 8 -1 13 2 13 1 80 -2 120 -1 20 0 37 3 37 3 0 4 17 3 38 -3 33 -3 56 -2
95 0 6 -1 33 -4 60 -2 26 -1 47 2 47 3 0 5 15 4 32 -1 18 -2 33 -3 33 0 0 -2
22 -4 50 -2 27 -9 51 -15 53 -6 2 -9 8 -6 12 7 11 -31 51 -39 42 -3 -3 -6 1
-6 10 0 9 -17 20 -42 28 -57 18 -68 20 -68 11 0 -4 -10 -7 -22 -6 -31 3 -49
-5 -41 -18 3 -6 1 -7 -6 -3 -7 5 -25 -6 -45 -27 -21 -23 -37 -32 -46 -27 -7 4
-24 4 -39 0 -14 -4 -36 -3 -49 1 -15 6 -21 5 -17 -1 4 -6 -2 -7 -17 -1 l-23 8
-2 589 c-1 324 -4 600 -6 614 -4 24 -15 73 -22 95 -1 6 -3 12 -3 15 -1 15 -37
97 -48 110 -7 8 -13 17 -13 20 0 14 -17 47 -33 64 -10 11 -18 25 -18 31 0 6
-9 17 -20 25 -11 8 -20 18 -20 22 0 10 -46 58 -55 58 -4 0 -15 8 -24 18 -48
52 -149 108 -263 146 -66 22 -89 24 -243 23 -93 -1 -182 -3 -197 -5z m-593
-2184 c0 -97 4 -180 7 -184 4 -4 4 -14 0 -23 -5 -9 -8 -116 -7 -239 0 -123 -2
-225 -5 -227 -7 -5 -3 -192 5 -225 3 -14 9 -42 12 -62 3 -21 10 -38 14 -38 5
0 8 -3 7 -7 -5 -13 25 -93 34 -93 4 0 8 -9 8 -20 0 -11 5 -20 12 -20 6 0 9 -3
5 -6 -3 -3 3 -15 14 -27 10 -11 19 -27 19 -34 0 -7 7 -13 15 -13 8 0 15 -6 15
-12 1 -16 64 -88 78 -88 5 0 12 -9 15 -21 3 -12 10 -18 16 -14 6 3 14 -1 17
-9 3 -9 12 -16 20 -16 8 0 14 -4 14 -10 0 -5 9 -10 20 -10 12 0 20 -7 20 -16
0 -10 6 -14 15 -10 8 3 15 1 15 -4 0 -6 7 -10 15 -10 8 0 15 -4 15 -8 0 -5 6
-9 13 -9 6 0 33 -10 59 -22 26 -13 52 -20 58 -16 5 3 10 2 10 -3 0 -5 6 -10
13 -11 6 -1 26 -3 42 -5 17 -3 30 -5 30 -7 0 -8 282 -5 293 4 8 6 12 6 12 -2
0 -8 6 -7 16 3 8 9 19 14 24 11 4 -3 26 2 49 10 23 8 41 11 41 7 0 -4 4 -1 8
6 5 7 19 14 31 17 13 2 29 9 37 16 8 6 14 8 14 5 0 -4 10 2 22 14 12 11 25 21
30 21 4 1 13 2 19 3 7 0 15 9 18 19 4 10 10 18 14 17 22 -3 145 113 139 131
-1 5 5 9 14 9 8 0 13 4 9 9 -3 6 1 13 9 18 8 4 16 15 18 23 2 8 11 21 21 29
10 7 16 19 13 26 -2 7 2 16 11 19 8 4 13 13 9 21 -3 8 -1 15 5 15 6 0 7 5 4
10 -3 6 -2 10 4 10 5 0 12 18 16 40 4 22 11 40 16 40 6 0 7 5 4 10 -3 5 -3 16
2 23 11 18 12 37 2 37 -5 0 -4 10 3 23 9 16 12 151 12 537 l1 515 55 1 c30 0
60 -1 65 -3 7 -2 9 -197 8 -561 -1 -510 -4 -590 -27 -712 -7 -35 -79 -210 -85
-204 -2 2 -17 -17 -33 -43 -31 -49 -58 -80 -58 -66 0 4 -9 -5 -20 -22 -11 -16
-20 -27 -20 -24 0 3 -21 -14 -47 -38 -26 -23 -56 -43 -65 -43 -10 0 -18 -4
-18 -9 0 -10 -125 -73 -172 -86 -5 -2 -10 -4 -13 -5 -3 -1 -9 -4 -15 -5 -5 -1
-11 -3 -12 -5 -2 -1 -10 -3 -18 -5 -8 -2 -26 -7 -40 -11 -14 -3 -35 -7 -47 -8
-13 0 -23 -4 -23 -8 0 -4 -14 -6 -30 -4 -17 2 -32 0 -35 -4 -4 -6 -300 -7
-300 -1 0 2 -16 4 -35 6 -19 1 -37 3 -40 5 -3 1 -9 2 -13 1 -8 -1 -99 27 -147
46 -8 4 -21 5 -27 4 -7 -1 -13 3 -13 9 0 6 -4 8 -10 5 -5 -3 -10 -1 -10 6 0 7
-3 10 -6 6 -7 -6 -81 30 -90 44 -3 5 -10 7 -15 4 -5 -4 -9 -1 -9 6 0 7 -3 10
-6 6 -5 -5 -15 2 -88 65 -17 15 -34 28 -38 28 -5 0 -8 6 -8 13 0 6 -14 21 -30
32 -16 11 -30 24 -30 29 0 5 -7 18 -17 28 -17 19 -33 44 -55 88 -7 14 -16 27
-20 30 -4 3 -9 17 -11 30 -5 25 -11 43 -24 78 -3 9 -8 28 -10 42 -2 14 -6 32
-10 40 -3 8 -7 56 -9 105 -2 81 -7 985 -5 1077 l1 38 73 -3 72 -2 0 -177z
m739 -93 c3 -8 11 -15 18 -15 7 0 22 -11 32 -25 10 -14 23 -25 28 -25 5 0 21
-12 36 -27 20 -20 27 -37 27 -65 0 -21 -4 -38 -9 -38 -4 0 -6 -7 -3 -15 4 -8
2 -17 -2 -20 -5 -2 -12 -20 -15 -38 -5 -25 -14 -36 -39 -46 -17 -8 -35 -13
-39 -12 -5 0 -8 -4 -8 -11 0 -6 -2 -9 -5 -6 -3 3 -26 -5 -52 -17 -42 -21 -50
-21 -94 -10 -27 7 -49 11 -49 8 0 -3 -6 -1 -13 5 -7 6 -24 13 -37 15 -82 16
-99 32 -102 97 0 8 -4 20 -8 25 -9 14 9 97 21 90 5 -4 9 1 9 9 0 9 5 16 10 16
6 0 10 5 10 11 0 15 50 62 58 55 3 -3 11 -1 19 5 7 6 13 9 13 7 0 -2 37 5 83
18 102 27 104 27 111 9z m411 -65 c-3 -5 7 -17 22 -27 32 -19 46 -31 86 -67
15 -14 27 -23 27 -21 0 2 14 -9 31 -26 28 -27 30 -34 23 -67 -4 -20 -9 -41
-10 -47 -1 -5 -3 -13 -4 -17 -1 -5 -4 -12 -5 -18 -1 -5 -4 -12 -5 -15 -4 -8
-7 -17 -15 -53 -6 -26 -12 -33 -26 -29 -11 3 -21 1 -24 -4 -4 -5 -16 -9 -28
-8 -12 0 -43 -4 -69 -9 -40 -7 -51 -6 -67 10 -11 10 -25 18 -31 18 -5 0 -10 3
-10 8 0 12 -57 72 -68 72 -5 0 -12 9 -15 21 -3 12 -10 18 -15 15 -14 -8 -36
50 -26 71 4 10 7 30 6 46 0 15 3 27 8 27 5 0 7 6 4 14 -3 7 2 20 10 29 8 8 13
17 10 20 -3 3 2 4 13 3 10 -2 27 3 39 11 11 7 24 10 27 6 4 -3 7 -1 7 6 0 6 6
11 13 10 6 -1 28 5 47 14 41 19 54 21 45 7z m-705 -326 c3 -1 20 -5 38 -9 18
-4 35 -12 38 -16 3 -5 9 -7 14 -4 5 3 25 -1 45 -9 34 -15 62 -57 49 -77 -3 -5
-1 -9 5 -9 5 0 8 -11 6 -25 -1 -14 1 -25 4 -25 6 0 11 -21 14 -62 1 -10 5 -18
9 -18 4 0 7 -6 5 -12 -3 -15 -49 -54 -59 -51 -5 2 -8 -3 -8 -10 0 -7 -14 -24
-31 -36 -18 -13 -29 -17 -25 -10 4 8 1 6 -7 -3 -8 -10 -19 -18 -26 -18 -6 0
-11 -8 -11 -17 0 -9 -3 -14 -6 -10 -3 3 -15 -3 -27 -14 -22 -20 -33 -22 -107
-20 -77 2 -116 13 -118 34 0 7 -10 61 -21 122 l-20 109 44 42 c24 24 41 45 37
48 -3 3 0 6 7 6 6 0 37 25 67 55 35 36 59 53 67 48 7 -4 14 -8 17 -9z m901
-161 c2 1 3 0 2 -2 -3 -4 27 -64 36 -71 3 -3 14 -20 24 -38 15 -26 16 -36 7
-47 -7 -8 -9 -15 -4 -15 4 0 -2 -10 -14 -23 -12 -13 -19 -27 -15 -30 3 -4 1
-7 -6 -7 -7 0 -10 -4 -6 -9 3 -6 -4 -15 -15 -21 -11 -6 -20 -18 -20 -26 0 -8
-13 -35 -30 -58 l-29 -43 -58 3 c-137 8 -129 3 -163 89 -13 33 -26 64 -30 68
-4 5 1 26 11 47 11 22 19 46 19 55 0 8 5 15 11 15 5 0 16 15 24 34 8 19 19 38
25 41 6 4 8 10 5 15 -5 8 26 31 48 36 4 1 8 2 10 4 1 1 25 4 52 7 28 2 55 9
60 14 7 7 17 2 31 -15 12 -14 24 -24 25 -23z m-1225 -50 c14 -3 24 -16 29 -36
4 -18 9 -39 12 -47 2 -8 6 -30 9 -49 3 -19 9 -42 15 -52 5 -11 8 -19 5 -19 -2
0 0 -16 4 -35 6 -25 4 -38 -6 -46 -8 -6 -11 -15 -9 -20 3 -4 -1 -11 -9 -16 -8
-4 -16 -17 -18 -28 -6 -38 -58 -55 -58 -19 0 8 -4 14 -8 14 -10 0 -42 98 -44
138 -1 6 -4 12 -7 12 -4 0 -7 17 -9 38 -1 20 -4 61 -6 90 -3 29 -1 52 5 52 5
0 7 11 3 24 -6 24 -5 24 33 14 21 -5 48 -12 59 -15z m1411 -128 c-1 -25 -5
-45 -9 -45 -4 0 -5 -8 -3 -19 3 -16 -1 -40 -18 -106 -2 -5 -8 -20 -15 -31 -6
-12 -8 -24 -5 -28 3 -3 1 -6 -5 -6 -7 0 -11 -3 -10 -7 4 -15 -33 -74 -42 -68
-6 3 -7 -1 -3 -11 5 -14 3 -15 -15 -5 -12 7 -22 15 -22 20 0 4 -13 21 -29 37
-30 30 -30 41 0 85 10 14 16 29 12 33 -3 3 -1 6 5 6 7 0 12 7 12 15 0 8 3 15
8 15 4 0 23 29 42 64 19 36 38 62 42 60 4 -3 8 2 8 11 0 9 4 14 9 10 5 -3 12
-1 16 5 14 23 24 7 22 -35z m-759 0 c3 2 11 0 19 -7 7 -6 16 -8 20 -5 3 4 11
2 18 -3 6 -5 20 -11 31 -13 10 -1 24 -6 31 -10 6 -4 18 -4 27 -1 10 4 16 1 16
-7 0 -7 3 -10 6 -6 10 9 30 -15 37 -45 4 -15 13 -33 20 -40 6 -7 14 -22 15
-33 2 -11 8 -24 13 -29 14 -15 11 -41 -8 -64 -48 -55 -57 -67 -58 -72 0 -3 -4
-4 -8 -2 -5 1 -6 -2 -3 -7 4 -5 -2 -14 -11 -20 -10 -6 -14 -11 -10 -11 5 0 2
-6 -5 -13 -16 -17 -68 -28 -68 -15 0 5 -6 8 -12 5 -7 -2 -34 2 -61 10 -26 8
-52 11 -57 8 -6 -3 -10 -1 -10 5 0 6 -6 10 -12 9 -53 -9 -127 33 -128 73 0 9
-3 18 -7 20 -11 4 -57 96 -60 120 -2 11 1 17 6 13 6 -3 15 4 21 16 7 11 14 18
17 16 5 -6 30 13 70 50 13 12 23 19 23 15 0 -4 5 1 11 11 5 9 15 17 20 17 6 0
17 7 25 15 11 11 21 12 41 4 14 -5 28 -7 31 -4z m-108 -410 c25 -4 52 -9 60
-10 8 -1 22 -5 30 -8 8 -3 35 -8 60 -11 72 -8 86 -15 109 -57 12 -21 27 -39
32 -39 6 0 8 -4 5 -9 -4 -5 -1 -11 4 -13 6 -2 12 -13 13 -26 0 -12 5 -22 9
-22 16 0 -23 -48 -45 -55 -36 -10 -97 -11 -97 0 0 6 -3 6 -8 0 -4 -6 -18 -9
-32 -8 -36 4 -92 4 -115 -1 -11 -2 -25 0 -31 5 -6 5 -24 10 -40 12 -17 2 -34
6 -39 8 -6 3 -30 12 -55 19 -25 8 -51 20 -57 26 -7 7 -17 14 -23 16 -19 6 -18
75 2 92 10 9 18 13 18 9 0 -3 8 4 19 15 10 12 21 19 25 15 3 -3 6 -1 6 5 0 6
9 14 20 17 11 4 18 10 15 15 -11 19 21 20 115 5z"/>
</g>
</svg>
